<svg xmlns="http://www.w3.org/2000/svg" aria-hidden="true" style="position:absolute;width:0;height:0;overflow:hidden"><defs><symbol id="icon-yaco" viewBox="0 0 27 32"><path d="m4 .475 4.672 4.423L0 4.893v21.458h22.667v-8.204l4.667 4.418V.476H4.001zm18.462 17.153L9.215 5.088h13.247v12.54zm-4.113 5.584H3.587V8.78H4.63v13.454h13.719v.977zM7.073 29.208l-.545 1.123-.545-1.123h-.457l.796 1.497v.872h.413v-.872l.794-1.497h-.456zm.685 2.37.192-.552h.918l.194.552h.43l-.897-2.37h-.369l-.895 2.37h.428zm.651-1.867.343.983h-.687l.343-.983zm2.171.926a.537.537 0 0 0-.09.301c0 .2.07.362.21.487.141.124.329.186.563.186s.436-.063.605-.19l.133.158h.459l-.348-.412c.137-.187.205-.426.205-.718h-.343a.95.95 0 0 1-.099.435l-.457-.54.161-.117a.894.894 0 0 0 .246-.247.524.524 0 0 0 .075-.273.487.487 0 0 0-.166-.376.598.598 0 0 0-.423-.153.629.629 0 0 0-.456.163.576.576 0 0 0-.169.439.58.58 0 0 0 .054.236c.037.081.101.18.194.296-.176.126-.294.235-.353.327zm1.069.524a.603.603 0 0 1-.374.133c-.118 0-.213-.034-.283-.103s-.106-.157-.106-.267c0-.127.065-.24.195-.339l.05-.036.518.61zm-.424-1.05c-.112-.138-.168-.252-.168-.343 0-.079.023-.145.068-.197s.107-.078.184-.078c.072 0 .131.022.177.067.047.043.07.096.07.158 0 .093-.034.17-.101.23l-.05.041-.181.124zm3.857 1.288c.163-.142.256-.34.28-.592h-.41c-.022.169-.073.29-.155.363s-.203.109-.365.109a.459.459 0 0 1-.404-.202c-.091-.135-.137-.33-.137-.586v-.21c.002-.253.051-.444.146-.575a.483.483 0 0 1 .413-.197c.154 0 .271.038.35.114.08.075.13.197.15.368h.41c-.026-.259-.119-.46-.278-.602s-.37-.213-.632-.213a.955.955 0 0 0-.514.138c-.148.092-.261.224-.34.394s-.119.367-.119.591v.221c.003.218.044.41.122.575s.189.292.332.383a.932.932 0 0 0 .5.133c.27 0 .487-.071.649-.212zm2.42-.332c.08-.176.12-.38.12-.612v-.132a1.423 1.423 0 0 0-.124-.607.897.897 0 0 0-.347-.4c-.149-.093-.32-.14-.513-.14s-.365.047-.514.142a.924.924 0 0 0-.347.405 1.456 1.456 0 0 0-.122.612v.133c.001.227.042.427.124.601a.934.934 0 0 0 .348.402.96.96 0 0 0 .514.14.947.947 0 0 0 .514-.14.908.908 0 0 0 .345-.404zm-.441-1.34c.1.14.15.341.15.604v.124c0 .267-.049.47-.148.609a.483.483 0 0 1-.42.208.492.492 0 0 1-.423-.213c-.101-.142-.151-.343-.151-.604v-.137c.002-.255.053-.452.153-.591.101-.14.24-.21.418-.21.182 0 .323.07.422.21z"/></symbol></defs></svg>